<svg width="150" height="24" viewBox="0 0 150 24" fill="none" xmlns="http://www.w3.org/2000/svg">
<path d="M5.59084 11.6023L3.0158 14.3166V18.5785H0V1.91179H3.0158V10.4594L11.0425 1.91179H14.4295L7.60911 9.36417L14.847 18.5785H11.3209L5.59084 11.6023Z" fill="white"/>
<path d="M21.0601 5.72132C22.885 5.72132 24.2769 6.1737 25.2358 7.07846C26.2101 7.96735 26.6973 9.31656 26.6973 11.1261V18.5785H23.9599V17.0308C23.6042 17.5864 23.0938 18.015 22.4288 18.3166C21.7792 18.6023 20.9905 18.7451 20.0625 18.7451C19.1346 18.7451 18.3226 18.5864 17.6267 18.2689C16.9307 17.9356 16.3894 17.4832 16.0028 16.9118C15.6316 16.3245 15.446 15.6658 15.446 14.9356C15.446 13.7927 15.8559 12.88 16.6755 12.1975C17.5107 11.4991 18.8175 11.1499 20.5961 11.1499H23.7975V10.9594C23.7975 10.0705 23.5346 9.38799 23.0087 8.91179C22.4984 8.4356 21.7328 8.19751 20.7121 8.19751C20.0161 8.19751 19.3279 8.30862 18.6474 8.53084C17.9824 8.75307 17.4179 9.06259 16.9539 9.45941L15.8172 7.29275C16.4668 6.78481 17.2478 6.39592 18.1603 6.12608C19.0727 5.85624 20.0393 5.72132 21.0601 5.72132ZM20.6657 16.5785C21.3926 16.5785 22.0344 16.4118 22.5912 16.0785C23.1634 15.7293 23.5655 15.2372 23.7975 14.6023V13.1261H20.8049C19.1346 13.1261 18.2994 13.6896 18.2994 14.8166C18.2994 15.3562 18.5082 15.7848 18.9258 16.1023C19.3434 16.4197 19.9233 16.5785 20.6657 16.5785Z" fill="white"/>
<path d="M37.2856 5.72132C38.4919 5.72132 39.5668 5.99116 40.5102 6.53084C41.4691 7.07052 42.2191 7.83243 42.7604 8.81656C43.3017 9.80068 43.5724 10.9356 43.5724 12.2213C43.5724 13.507 43.3017 14.6499 42.7604 15.6499C42.2191 16.634 41.4691 17.3959 40.5102 17.9356C39.5668 18.4753 38.4919 18.7451 37.2856 18.7451C35.6153 18.7451 34.293 18.1737 33.3187 17.0308V23.1975H30.4188V5.86418H33.1795V7.53084C33.6589 6.92767 34.2466 6.47529 34.9426 6.1737C35.654 5.87211 36.435 5.72132 37.2856 5.72132ZM36.9608 16.1975C38.028 16.1975 38.9018 15.8324 39.5822 15.1023C40.2782 14.3721 40.6262 13.4118 40.6262 12.2213C40.6262 11.0308 40.2782 10.0705 39.5822 9.34037C38.9018 8.61021 38.028 8.24513 36.9608 8.24513C36.2649 8.24513 35.6385 8.41179 35.0817 8.74513C34.525 9.06259 34.0842 9.52291 33.7594 10.1261C33.4346 10.7293 33.2723 11.4277 33.2723 12.2213C33.2723 13.015 33.4346 13.7134 33.7594 14.3166C34.0842 14.9197 34.525 15.388 35.0817 15.7213C35.6385 16.0388 36.2649 16.1975 36.9608 16.1975Z" fill="white"/>
<path d="M46.3225 5.86418H49.2223V18.5785H46.3225V5.86418ZM47.784 3.76894C47.2582 3.76894 46.8174 3.60227 46.4617 3.26894C46.106 2.91973 45.9281 2.49116 45.9281 1.98322C45.9281 1.47529 46.106 1.05465 46.4617 0.721318C46.8174 0.372113 47.2582 0.19751 47.784 0.19751C48.3098 0.19751 48.7506 0.364176 49.1063 0.697509C49.462 1.01497 49.6399 1.41973 49.6399 1.91179C49.6399 2.4356 49.462 2.88005 49.1063 3.24513C48.7661 3.59433 48.3253 3.76894 47.784 3.76894Z" fill="white"/>
<path d="M59.8951 5.72132C61.1014 5.72132 62.1763 5.99116 63.1197 6.53084C64.0785 7.07052 64.8286 7.83243 65.3699 8.81656C65.9112 9.80068 66.1819 10.9356 66.1819 12.2213C66.1819 13.507 65.9112 14.6499 65.3699 15.6499C64.8286 16.634 64.0785 17.3959 63.1197 17.9356C62.1763 18.4753 61.1014 18.7451 59.8951 18.7451C59.0445 18.7451 58.2634 18.5943 57.552 18.2927C56.8561 17.9912 56.2684 17.5388 55.7889 16.9356V18.5785H53.0283V0.911795H55.9281V7.4118C56.423 6.85624 57.003 6.4356 57.668 6.14989C58.3485 5.86418 59.0909 5.72132 59.8951 5.72132ZM59.5703 16.1975C60.6374 16.1975 61.5112 15.8324 62.1917 15.1023C62.8877 14.3721 63.2357 13.4118 63.2357 12.2213C63.2357 11.0308 62.8877 10.0705 62.1917 9.34037C61.5112 8.61021 60.6374 8.24513 59.5703 8.24513C58.8743 8.24513 58.248 8.41179 57.6912 8.74513C57.1344 9.06259 56.6937 9.52291 56.3689 10.1261C56.0441 10.7293 55.8817 11.4277 55.8817 12.2213C55.8817 13.015 56.0441 13.7134 56.3689 14.3166C56.6937 14.9197 57.1344 15.388 57.6912 15.7213C58.248 16.0388 58.8743 16.1975 59.5703 16.1975Z" fill="white"/>
<path d="M73.5059 5.72132C75.3308 5.72132 76.7227 6.1737 77.6816 7.07846C78.6559 7.96735 79.1431 9.31656 79.1431 11.1261V18.5785H76.4057V17.0308C76.05 17.5864 75.5396 18.015 74.8746 18.3166C74.225 18.6023 73.4363 18.7451 72.5083 18.7451C71.5804 18.7451 70.7685 18.5864 70.0725 18.2689C69.3765 17.9356 68.8353 17.4832 68.4486 16.9118C68.0774 16.3245 67.8918 15.6658 67.8918 14.9356C67.8918 13.7927 68.3017 12.88 69.1214 12.1975C69.9565 11.4991 71.2634 11.1499 73.0419 11.1499H76.2433V10.9594C76.2433 10.0705 75.9804 9.38799 75.4546 8.91179C74.9442 8.4356 74.1786 8.19751 73.1579 8.19751C72.4619 8.19751 71.7737 8.30862 71.0932 8.53084C70.4282 8.75307 69.8637 9.06259 69.3997 9.45941L68.263 7.29275C68.9126 6.78481 69.6936 6.39592 70.6061 6.12608C71.5185 5.85624 72.4851 5.72132 73.5059 5.72132ZM73.1115 16.5785C73.8384 16.5785 74.4802 16.4118 75.037 16.0785C75.6092 15.7293 76.0113 15.2372 76.2433 14.6023V13.1261H73.2507C71.5804 13.1261 70.7453 13.6896 70.7453 14.8166C70.7453 15.3562 70.954 15.7848 71.3716 16.1023C71.7892 16.4197 72.3691 16.5785 73.1115 16.5785Z" fill="white"/>
<path d="M85.6253 7.72132C86.4604 6.38799 87.9297 5.72132 90.033 5.72132V8.55465C89.7855 8.50703 89.5613 8.48322 89.3602 8.48322C88.2312 8.48322 87.3497 8.82449 86.7156 9.50703C86.0815 10.1737 85.7645 11.142 85.7645 12.4118V18.5785H82.8647V5.86418H85.6253V7.72132Z" fill="white"/>
<path d="M97.1575 5.72132C98.9824 5.72132 100.374 6.1737 101.333 7.07846C102.308 7.96735 102.795 9.31656 102.795 11.1261V18.5785H100.057V17.0308C99.7016 17.5864 99.1912 18.015 98.5262 18.3166C97.8766 18.6023 97.0879 18.7451 96.1599 18.7451C95.232 18.7451 94.42 18.5864 93.7241 18.2689C93.0281 17.9356 92.4868 17.4832 92.1002 16.9118C91.729 16.3245 91.5434 15.6658 91.5434 14.9356C91.5434 13.7927 91.9533 12.88 92.7729 12.1975C93.6081 11.4991 94.9149 11.1499 96.6935 11.1499H99.8949V10.9594C99.8949 10.0705 99.632 9.38799 99.1061 8.91179C98.5958 8.4356 97.8302 8.19751 96.8095 8.19751C96.1135 8.19751 95.4253 8.30862 94.7448 8.53084C94.0798 8.75307 93.5153 9.06259 93.0513 9.45941L91.9146 7.29275C92.5642 6.78481 93.3452 6.39592 94.2577 6.12608C95.1701 5.85624 96.1367 5.72132 97.1575 5.72132ZM96.7631 16.5785C97.49 16.5785 98.1318 16.4118 98.6886 16.0785C99.2608 15.7293 99.6629 15.2372 99.8949 14.6023V13.1261H96.9023C95.232 13.1261 94.3969 13.6896 94.3969 14.8166C94.3969 15.3562 94.6056 15.7848 95.0232 16.1023C95.4408 16.4197 96.0207 16.5785 96.7631 16.5785Z" fill="white"/>
<path d="M109.033 1.91179H112.049V15.9594H120.539V18.5785H109.033V1.91179Z" fill="white"/>
<path d="M127.488 5.72132C129.313 5.72132 130.705 6.1737 131.663 7.07846C132.638 7.96735 133.125 9.31656 133.125 11.1261V18.5785H130.387V17.0308C130.032 17.5864 129.521 18.015 128.856 18.3166C128.207 18.6023 127.418 18.7451 126.49 18.7451C125.562 18.7451 124.75 18.5864 124.054 18.2689C123.358 17.9356 122.817 17.4832 122.43 16.9118C122.059 16.3245 121.874 15.6658 121.874 14.9356C121.874 13.7927 122.283 12.88 123.103 12.1975C123.938 11.4991 125.245 11.1499 127.024 11.1499H130.225V10.9594C130.225 10.0705 129.962 9.38799 129.436 8.91179C128.926 8.4356 128.16 8.19751 127.14 8.19751C126.444 8.19751 125.756 8.30862 125.075 8.53084C124.41 8.75307 123.846 9.06259 123.382 9.45941L122.245 7.29275C122.894 6.78481 123.675 6.39592 124.588 6.12608C125.5 5.85624 126.467 5.72132 127.488 5.72132ZM127.093 16.5785C127.82 16.5785 128.462 16.4118 129.019 16.0785C129.591 15.7293 129.993 15.2372 130.225 14.6023V13.1261H127.232C125.562 13.1261 124.727 13.6896 124.727 14.8166C124.727 15.3562 124.936 15.7848 125.353 16.1023C125.771 16.4197 126.351 16.5785 127.093 16.5785Z" fill="white"/>
<path d="M143.713 5.72132C144.92 5.72132 145.994 5.99116 146.938 6.53084C147.897 7.07052 148.647 7.83243 149.188 8.81656C149.729 9.80068 150 10.9356 150 12.2213C150 13.507 149.729 14.6499 149.188 15.6499C148.647 16.634 147.897 17.3959 146.938 17.9356C145.994 18.4753 144.92 18.7451 143.713 18.7451C142.863 18.7451 142.082 18.5943 141.37 18.2927C140.674 17.9912 140.087 17.5388 139.607 16.9356V18.5785H136.846V0.911795H139.746V7.4118C140.241 6.85624 140.821 6.4356 141.486 6.14989C142.167 5.86418 142.909 5.72132 143.713 5.72132ZM143.388 16.1975C144.456 16.1975 145.329 15.8324 146.01 15.1023C146.706 14.3721 147.054 13.4118 147.054 12.2213C147.054 11.0308 146.706 10.0705 146.01 9.34037C145.329 8.61021 144.456 8.24513 143.388 8.24513C142.692 8.24513 142.066 8.41179 141.509 8.74513C140.953 9.06259 140.512 9.52291 140.187 10.1261C139.862 10.7293 139.7 11.4277 139.7 12.2213C139.7 13.015 139.862 13.7134 140.187 14.3166C140.512 14.9197 140.953 15.388 141.509 15.7213C142.066 16.0388 142.692 16.1975 143.388 16.1975Z" fill="white"/>
<path d="M62.0018 12.2293C62.0018 13.5442 60.9632 14.6102 59.682 14.6102C58.4008 14.6102 57.3621 13.5442 57.3621 12.2293C57.3621 10.9143 58.4008 9.8483 59.682 9.8483C60.9632 9.8483 62.0018 10.9143 62.0018 12.2293Z" fill="white"/>
</svg>
