<svg width="249" height="53" viewBox="0 0 249 53" fill="none" xmlns="http://www.w3.org/2000/svg">
<rect width="249" height="53" rx="8" fill="#737BE1"/>
<path d="M26.925 34.126C25.469 34.126 24.146 33.804 22.956 33.16C21.78 32.502 20.856 31.606 20.184 30.472C19.526 29.338 19.197 28.064 19.197 26.65C19.197 25.236 19.526 23.962 20.184 22.828C20.856 21.694 21.78 20.805 22.956 20.161C24.146 19.503 25.469 19.174 26.925 19.174C28.381 19.174 29.69 19.496 30.852 20.14C32.028 20.784 32.952 21.68 33.624 22.828C34.296 23.962 34.632 25.236 34.632 26.65C34.632 28.064 34.296 29.345 33.624 30.493C32.952 31.627 32.028 32.516 30.852 33.16C29.69 33.804 28.381 34.126 26.925 34.126ZM26.925 32.74C28.087 32.74 29.137 32.481 30.075 31.963C31.013 31.431 31.748 30.703 32.28 29.779C32.812 28.841 33.078 27.798 33.078 26.65C33.078 25.502 32.812 24.466 32.28 23.542C31.748 22.604 31.013 21.876 30.075 21.358C29.137 20.826 28.087 20.56 26.925 20.56C25.763 20.56 24.706 20.826 23.754 21.358C22.816 21.876 22.074 22.604 21.528 23.542C20.996 24.466 20.73 25.502 20.73 26.65C20.73 27.798 20.996 28.841 21.528 29.779C22.074 30.703 22.816 31.431 23.754 31.963C24.706 32.481 25.763 32.74 26.925 32.74ZM42.6033 34.105C41.5113 34.105 40.5313 33.867 39.6633 33.391C38.8093 32.915 38.1373 32.25 37.6473 31.396C37.1573 30.528 36.9123 29.555 36.9123 28.477C36.9123 27.399 37.1573 26.433 37.6473 25.579C38.1373 24.725 38.8093 24.06 39.6633 23.584C40.5313 23.108 41.5113 22.87 42.6033 22.87C43.5553 22.87 44.4023 23.059 45.1443 23.437C45.9003 23.801 46.4953 24.34 46.9293 25.054L45.8163 25.81C45.4523 25.264 44.9903 24.858 44.4303 24.592C43.8703 24.312 43.2613 24.172 42.6033 24.172C41.8053 24.172 41.0843 24.354 40.4403 24.718C39.8103 25.068 39.3133 25.572 38.9493 26.23C38.5993 26.888 38.4243 27.637 38.4243 28.477C38.4243 29.331 38.5993 30.087 38.9493 30.745C39.3133 31.389 39.8103 31.893 40.4403 32.257C41.0843 32.607 41.8053 32.782 42.6033 32.782C43.2613 32.782 43.8703 32.649 44.4303 32.383C44.9903 32.117 45.4523 31.711 45.8163 31.165L46.9293 31.921C46.4953 32.635 45.9003 33.181 45.1443 33.559C44.3883 33.923 43.5413 34.105 42.6033 34.105ZM57.3812 24.277H53.2022V34H51.7112V24.277H47.5322V22.954H57.3812V24.277ZM63.338 22.87C64.78 22.87 65.886 23.234 66.656 23.962C67.426 24.676 67.811 25.74 67.811 27.154V34H66.383V32.278C66.047 32.852 65.55 33.3 64.892 33.622C64.248 33.944 63.478 34.105 62.582 34.105C61.35 34.105 60.37 33.811 59.642 33.223C58.914 32.635 58.55 31.858 58.55 30.892C58.55 29.954 58.886 29.198 59.558 28.624C60.244 28.05 61.329 27.763 62.813 27.763H66.32V27.091C66.32 26.139 66.054 25.418 65.522 24.928C64.99 24.424 64.213 24.172 63.191 24.172C62.491 24.172 61.819 24.291 61.175 24.529C60.531 24.753 59.978 25.068 59.516 25.474L58.844 24.361C59.404 23.885 60.076 23.521 60.86 23.269C61.644 23.003 62.47 22.87 63.338 22.87ZM62.813 32.929C63.653 32.929 64.374 32.74 64.976 32.362C65.578 31.97 66.026 31.41 66.32 30.682V28.876H62.855C60.965 28.876 60.02 29.534 60.02 30.85C60.02 31.494 60.265 32.005 60.755 32.383C61.245 32.747 61.931 32.929 62.813 32.929ZM78.8152 28.288C80.3132 28.638 81.0622 29.541 81.0622 30.997C81.0622 31.963 80.7052 32.705 79.9912 33.223C79.2772 33.741 78.2132 34 76.7992 34H71.7802V22.954H76.6522C77.9122 22.954 78.8992 23.199 79.6132 23.689C80.3272 24.179 80.6842 24.879 80.6842 25.789C80.6842 26.391 80.5162 26.909 80.1802 27.343C79.8582 27.763 79.4032 28.078 78.8152 28.288ZM73.2292 27.868H76.5472C77.4012 27.868 78.0522 27.707 78.5002 27.385C78.9622 27.063 79.1932 26.594 79.1932 25.978C79.1932 25.362 78.9622 24.9 78.5002 24.592C78.0522 24.284 77.4012 24.13 76.5472 24.13H73.2292V27.868ZM76.7362 32.824C77.6882 32.824 78.4022 32.67 78.8782 32.362C79.3542 32.054 79.5922 31.571 79.5922 30.913C79.5922 30.255 79.3752 29.772 78.9412 29.464C78.5072 29.142 77.8212 28.981 76.8832 28.981H73.2292V32.824H76.7362ZM84.5565 22.954H86.0475V31.732L93.4185 22.954H94.7415V34H93.2505V25.222L85.9005 34H84.5565V22.954ZM106.785 24.277H102.606V34H101.115V24.277H96.9356V22.954H106.785V24.277ZM113.686 26.86C115.072 26.874 116.122 27.182 116.836 27.784C117.564 28.386 117.928 29.254 117.928 30.388C117.928 31.564 117.536 32.467 116.752 33.097C115.982 33.727 114.862 34.035 113.392 34.021L108.94 34V22.954H110.431V26.818L113.686 26.86ZM113.308 32.887C114.33 32.901 115.1 32.698 115.618 32.278C116.15 31.844 116.416 31.214 116.416 30.388C116.416 29.576 116.157 28.974 115.639 28.582C115.121 28.19 114.344 27.987 113.308 27.973L110.431 27.931V32.845L113.308 32.887ZM131.645 28.246C132.429 28.428 133.031 28.743 133.451 29.191C133.885 29.639 134.102 30.185 134.102 30.829C134.102 31.473 133.878 32.047 133.43 32.551C132.996 33.055 132.401 33.447 131.645 33.727C130.889 33.993 130.056 34.126 129.146 34.126C128.348 34.126 127.564 34.014 126.794 33.79C126.024 33.552 125.352 33.209 124.778 32.761L125.282 31.648C125.786 32.026 126.374 32.32 127.046 32.53C127.718 32.74 128.397 32.845 129.083 32.845C130.105 32.845 130.938 32.656 131.582 32.278C132.24 31.886 132.569 31.361 132.569 30.703C132.569 30.115 132.303 29.66 131.771 29.338C131.239 29.002 130.511 28.834 129.587 28.834H127.697V27.742H129.503C130.329 27.742 130.994 27.588 131.498 27.28C132.002 26.958 132.254 26.531 132.254 25.999C132.254 25.411 131.967 24.949 131.393 24.613C130.833 24.277 130.098 24.109 129.188 24.109C127.998 24.109 126.822 24.41 125.66 25.012L125.24 23.857C126.556 23.171 127.921 22.828 129.335 22.828C130.175 22.828 130.931 22.954 131.603 23.206C132.289 23.444 132.821 23.787 133.199 24.235C133.591 24.683 133.787 25.201 133.787 25.789C133.787 26.349 133.591 26.846 133.199 27.28C132.821 27.714 132.303 28.036 131.645 28.246ZM141.288 22.87C142.73 22.87 143.836 23.234 144.606 23.962C145.376 24.676 145.761 25.74 145.761 27.154V34H144.333V32.278C143.997 32.852 143.5 33.3 142.842 33.622C142.198 33.944 141.428 34.105 140.532 34.105C139.3 34.105 138.32 33.811 137.592 33.223C136.864 32.635 136.5 31.858 136.5 30.892C136.5 29.954 136.836 29.198 137.508 28.624C138.194 28.05 139.279 27.763 140.763 27.763H144.27V27.091C144.27 26.139 144.004 25.418 143.472 24.928C142.94 24.424 142.163 24.172 141.141 24.172C140.441 24.172 139.769 24.291 139.125 24.529C138.481 24.753 137.928 25.068 137.466 25.474L136.794 24.361C137.354 23.885 138.026 23.521 138.81 23.269C139.594 23.003 140.42 22.87 141.288 22.87ZM140.763 32.929C141.603 32.929 142.324 32.74 142.926 32.362C143.528 31.97 143.976 31.41 144.27 30.682V28.876H140.805C138.915 28.876 137.97 29.534 137.97 30.85C137.97 31.494 138.215 32.005 138.705 32.383C139.195 32.747 139.881 32.929 140.763 32.929ZM158.214 22.954V34H156.849V30.346H153.384H152.964L150.402 34H148.785L151.536 30.136C150.682 29.898 150.024 29.492 149.562 28.918C149.1 28.344 148.869 27.616 148.869 26.734C148.869 25.502 149.289 24.564 150.129 23.92C150.969 23.276 152.117 22.954 153.573 22.954H158.214ZM150.381 26.776C150.381 28.414 151.424 29.233 153.51 29.233H156.849V24.277H153.615C151.459 24.277 150.381 25.11 150.381 26.776ZM169.501 28.288C170.999 28.638 171.748 29.541 171.748 30.997C171.748 31.963 171.391 32.705 170.677 33.223C169.963 33.741 168.899 34 167.485 34H162.466V22.954H167.338C168.598 22.954 169.585 23.199 170.299 23.689C171.013 24.179 171.37 24.879 171.37 25.789C171.37 26.391 171.202 26.909 170.866 27.343C170.544 27.763 170.089 28.078 169.501 28.288ZM163.915 27.868H167.233C168.087 27.868 168.738 27.707 169.186 27.385C169.648 27.063 169.879 26.594 169.879 25.978C169.879 25.362 169.648 24.9 169.186 24.592C168.738 24.284 168.087 24.13 167.233 24.13H163.915V27.868ZM167.422 32.824C168.374 32.824 169.088 32.67 169.564 32.362C170.04 32.054 170.278 31.571 170.278 30.913C170.278 30.255 170.061 29.772 169.627 29.464C169.193 29.142 168.507 28.981 167.569 28.981H163.915V32.824H167.422ZM179.253 29.086H176.733V34H175.242V22.954H176.733V27.805H179.274L183.159 22.954H184.776L180.429 28.309L185.091 34H183.327L179.253 29.086ZM196.196 22.954L190.673 35.323C190.225 36.359 189.707 37.094 189.119 37.528C188.531 37.962 187.824 38.179 186.998 38.179C186.466 38.179 185.969 38.095 185.507 37.927C185.045 37.759 184.645 37.507 184.309 37.171L185.003 36.058C185.563 36.618 186.235 36.898 187.019 36.898C187.523 36.898 187.95 36.758 188.3 36.478C188.664 36.198 189 35.722 189.308 35.05L189.791 33.979L184.856 22.954H186.41L190.568 32.341L194.726 22.954H196.196Z" fill="white"/>
<path d="M226 26.5H212" stroke="white" stroke-width="2" stroke-linecap="round" stroke-linejoin="round"/>
<path d="M221 31.5L226 26.5" stroke="white" stroke-width="2" stroke-linecap="round" stroke-linejoin="round"/>
<path d="M221 21.5L226 26.5" stroke="white" stroke-width="2" stroke-linecap="round" stroke-linejoin="round"/>
</svg>
