<svg width="188" height="53" viewBox="0 0 188 53" fill="none" xmlns="http://www.w3.org/2000/svg">
<rect width="188" height="53" rx="8" fill="#737BE1"/>
<path d="M26.925 34.126C25.469 34.126 24.146 33.804 22.956 33.16C21.78 32.502 20.856 31.606 20.184 30.472C19.526 29.338 19.197 28.064 19.197 26.65C19.197 25.236 19.526 23.962 20.184 22.828C20.856 21.694 21.78 20.805 22.956 20.161C24.146 19.503 25.469 19.174 26.925 19.174C28.381 19.174 29.69 19.496 30.852 20.14C32.028 20.784 32.952 21.68 33.624 22.828C34.296 23.962 34.632 25.236 34.632 26.65C34.632 28.064 34.296 29.345 33.624 30.493C32.952 31.627 32.028 32.516 30.852 33.16C29.69 33.804 28.381 34.126 26.925 34.126ZM26.925 32.74C28.087 32.74 29.137 32.481 30.075 31.963C31.013 31.431 31.748 30.703 32.28 29.779C32.812 28.841 33.078 27.798 33.078 26.65C33.078 25.502 32.812 24.466 32.28 23.542C31.748 22.604 31.013 21.876 30.075 21.358C29.137 20.826 28.087 20.56 26.925 20.56C25.763 20.56 24.706 20.826 23.754 21.358C22.816 21.876 22.074 22.604 21.528 23.542C20.996 24.466 20.73 25.502 20.73 26.65C20.73 27.798 20.996 28.841 21.528 29.779C22.074 30.703 22.816 31.431 23.754 31.963C24.706 32.481 25.763 32.74 26.925 32.74ZM45.4457 24.277H41.2667V34H39.7757V24.277H35.5967V22.954H45.4457V24.277ZM57.5135 22.954V34H56.0225V24.277H49.0925V34H47.6015V22.954H57.5135ZM67.4429 22.87C68.4789 22.87 69.4169 23.108 70.2569 23.584C71.0969 24.046 71.7549 24.704 72.2309 25.558C72.7069 26.412 72.9449 27.385 72.9449 28.477C72.9449 29.583 72.7069 30.563 72.2309 31.417C71.7549 32.271 71.0969 32.936 70.2569 33.412C69.4309 33.874 68.4929 34.105 67.4429 34.105C66.5469 34.105 65.7349 33.923 65.0069 33.559C64.2929 33.181 63.7049 32.635 63.2429 31.921V38.074H61.7519V22.954H63.1799V25.138C63.6279 24.41 64.2159 23.85 64.9439 23.458C65.6859 23.066 66.5189 22.87 67.4429 22.87ZM67.3379 32.782C68.1079 32.782 68.8079 32.607 69.4379 32.257C70.0679 31.893 70.5579 31.382 70.9079 30.724C71.2719 30.066 71.4539 29.317 71.4539 28.477C71.4539 27.637 71.2719 26.895 70.9079 26.251C70.5579 25.593 70.0679 25.082 69.4379 24.718C68.8079 24.354 68.1079 24.172 67.3379 24.172C66.5539 24.172 65.8469 24.354 65.2169 24.718C64.6009 25.082 64.1109 25.593 63.7469 26.251C63.3969 26.895 63.2219 27.637 63.2219 28.477C63.2219 29.317 63.3969 30.066 63.7469 30.724C64.1109 31.382 64.6009 31.893 65.2169 32.257C65.8469 32.607 66.5539 32.782 67.3379 32.782ZM79.8878 22.87C81.3298 22.87 82.4358 23.234 83.2058 23.962C83.9758 24.676 84.3608 25.74 84.3608 27.154V34H82.9328V32.278C82.5968 32.852 82.0998 33.3 81.4418 33.622C80.7978 33.944 80.0278 34.105 79.1318 34.105C77.8998 34.105 76.9198 33.811 76.1918 33.223C75.4638 32.635 75.0998 31.858 75.0998 30.892C75.0998 29.954 75.4358 29.198 76.1078 28.624C76.7938 28.05 77.8788 27.763 79.3628 27.763H82.8698V27.091C82.8698 26.139 82.6038 25.418 82.0718 24.928C81.5398 24.424 80.7628 24.172 79.7408 24.172C79.0408 24.172 78.3688 24.291 77.7248 24.529C77.0808 24.753 76.5278 25.068 76.0658 25.474L75.3938 24.361C75.9538 23.885 76.6258 23.521 77.4098 23.269C78.1938 23.003 79.0198 22.87 79.8878 22.87ZM79.3628 32.929C80.2028 32.929 80.9238 32.74 81.5258 32.362C82.1278 31.97 82.5758 31.41 82.8698 30.682V28.876H79.4048C77.5148 28.876 76.5698 29.534 76.5698 30.85C76.5698 31.494 76.8148 32.005 77.3048 32.383C77.7948 32.747 78.4808 32.929 79.3628 32.929ZM95.365 28.288C96.863 28.638 97.612 29.541 97.612 30.997C97.612 31.963 97.255 32.705 96.541 33.223C95.827 33.741 94.763 34 93.349 34H88.33V22.954H93.202C94.462 22.954 95.449 23.199 96.163 23.689C96.877 24.179 97.234 24.879 97.234 25.789C97.234 26.391 97.066 26.909 96.73 27.343C96.408 27.763 95.953 28.078 95.365 28.288ZM89.779 27.868H93.097C93.951 27.868 94.602 27.707 95.05 27.385C95.512 27.063 95.743 26.594 95.743 25.978C95.743 25.362 95.512 24.9 95.05 24.592C94.602 24.284 93.951 24.13 93.097 24.13H89.779V27.868ZM93.286 32.824C94.238 32.824 94.952 32.67 95.428 32.362C95.904 32.054 96.142 31.571 96.142 30.913C96.142 30.255 95.925 29.772 95.491 29.464C95.057 29.142 94.371 28.981 93.433 28.981H89.779V32.824H93.286ZM101.106 22.954H102.597V31.732L109.968 22.954H111.291V34H109.8V25.222L102.45 34H101.106V22.954ZM123.334 24.277H119.155V34H117.664V24.277H113.485V22.954H123.334V24.277ZM130.236 26.86C131.622 26.874 132.672 27.182 133.386 27.784C134.114 28.386 134.478 29.254 134.478 30.388C134.478 31.564 134.086 32.467 133.302 33.097C132.532 33.727 131.412 34.035 129.942 34.021L125.49 34V22.954H126.981V26.818L130.236 26.86ZM129.858 32.887C130.88 32.901 131.65 32.698 132.168 32.278C132.7 31.844 132.966 31.214 132.966 30.388C132.966 29.576 132.707 28.974 132.189 28.582C131.671 28.19 130.894 27.987 129.858 27.973L126.981 27.931V32.845L129.858 32.887Z" fill="white"/>
<path d="M164.5 22.5L156.5 30.5L152 26" stroke="white" stroke-width="2" stroke-linecap="round" stroke-linejoin="round"/>
</svg>
